<!-- icon666.com - MILLIONS vector ICONS FREE --><svg version="1.1" id="Capa_1" xmlns="http://www.w3.org/2000/svg" xmlns:xlink="http://www.w3.org/1999/xlink" x="0px" y="0px" viewBox="0 0 512 512" style="enable-background:new 0 0 512 512;" xml:space="preserve"><g><g><path d="M492.875,112.875l-72.388,20.683l-5.93-1.694v-96.56l5.93-1.694l72.388,20.683c7.997,2.285,16.278-2.37,18.544-10.302 c2.276-7.966-2.336-16.268-10.302-18.544l-76.509-21.86c-2.694-0.77-5.549-0.77-8.242,0c-12.628,3.608-58.619,16.749-76.509,21.86 c-6.44,1.84-10.879,7.726-10.879,14.423v3.21H171.879c5.39,12.8,8.12,26.42,8.12,40.5c0,14.07-2.73,27.68-8.12,40.5h157.099v3.22 c0,6.697,4.439,12.583,10.879,14.423c7.01,2.003,67.565,19.305,76.509,21.86c2.688,0.768,5.544,0.771,8.242,0l76.509-21.86 c7.965-2.276,12.578-10.578,10.302-18.544C509.143,115.212,500.843,110.596,492.875,112.875z"></path></g></g><g><g><path d="M74.999,8.583C33.645,8.583,0,42.228,0,83.583c0,41.886,33.775,74.999,74.999,74.999 c41.237,0,74.999-33.409,74.999-74.999C149.999,41.778,115.879,8.583,74.999,8.583z"></path></g></g><g><g><path d="M141.05,371.755l-3.862,46.735h237.621l-3.862-46.735c-0.643-7.779-7.144-13.765-14.949-13.765h-94.057L147.409,159.608 c-20.089,19.242-47.797,30.06-76.869,28.88l97.87,169.503h-12.411v0C148.194,357.99,141.693,363.975,141.05,371.755z"></path></g></g><g><g><path d="M380.948,492.754l-3.66-44.265h-242.58l-3.658,44.265c-0.345,4.179,1.074,8.312,3.915,11.396 c2.84,3.085,6.842,4.84,11.035,4.84h219.998c4.193,0,8.195-1.755,11.035-4.84C379.873,501.066,381.293,496.933,380.948,492.754z"></path></g></g></svg>